<?xml version="1.0" encoding="utf-8" ?>
<svg baseProfile="full" height="128px" version="1.1" width="128px" xmlns="http://www.w3.org/2000/svg" xmlns:ev="http://www.w3.org/2001/xml-events" xmlns:xlink="http://www.w3.org/1999/xlink"><defs /><rect fill="#CD845B" height="6.75px" rx="2px" stroke="#CD845B" stroke-width="1" width="6.75px" x="21.6358442888" y="1.18132797536" /><rect fill="#CD845B" height="6.75px" rx="2px" stroke="#CD845B" stroke-width="1" width="6.75px" x="18.9939625582" y="2.61827785158" /><rect fill="#CD845B" height="6.75px" rx="2px" stroke="#CD845B" stroke-width="1" width="6.75px" x="22.3394163027" y="5.90607128382" /><rect fill="#CD845B" height="6.75px" rx="2px" stroke="#CD845B" stroke-width="1" width="6.75px" x="23.4683018659" y="1.63030653656" /><rect fill="#CD845B" height="6.75px" rx="2px" stroke="#CD845B" stroke-width="1" width="6.75px" x="20.0589331927" y="1.21602984093" /><rect fill="#CD845B" height="8.75px" rx="2px" stroke="#CD845B" stroke-width="1" width="8.75px" x="34.1478493677" y="3.65311526254" /><rect fill="#CD845B" height="8.75px" rx="2px" stroke="#CD845B" stroke-width="1" width="8.75px" x="33.1393138408" y="2.0438976661" /><rect fill="#CD845B" height="8.75px" rx="2px" stroke="#CD845B" stroke-width="1" width="8.75px" x="36.4118932983" y="3.86094277317" /><rect fill="#CD845B" height="9.75px" rx="2px" stroke="#CD845B" stroke-width="1" width="9.75px" x="49.9368726437" y="3.50437915647" /><rect fill="#CD845B" height="9.75px" rx="2px" stroke="#CD845B" stroke-width="1" width="9.75px" x="52.4400794409" y="1.02761972863" /><rect fill="#CD845B" height="9.75px" rx="2px" stroke="#CD845B" stroke-width="1" width="9.75px" x="68.4247318203" y="3.9670924287" /><rect fill="#CD845B" height="9.75px" rx="2px" stroke="#CD845B" stroke-width="1" width="9.75px" x="66.4460646952" y="1.6607878742" /><rect fill="#CD845B" height="6.75px" rx="2px" stroke="#CD845B" stroke-width="1" width="6.75px" x="103.939794773" y="3.44031045207" /><rect fill="#CD845B" height="6.75px" rx="2px" stroke="#CD845B" stroke-width="1" width="6.75px" x="97.6724073645" y="1.70119373204" /><rect fill="#CD845B" height="6.75px" rx="2px" stroke="#CD845B" stroke-width="1" width="6.75px" x="103.144334156" y="5.37701372741" /><rect fill="#CD845B" height="6.75px" rx="2px" stroke="#CD845B" stroke-width="1" width="6.75px" x="102.851679981" y="6.29055545353" /><rect fill="#CD845B" height="6.75px" rx="2px" stroke="#CD845B" stroke-width="1" width="6.75px" x="100.887653663" y="8.05508928885" /><rect fill="#CD845B" height="3.75px" rx="2px" stroke="#CD845B" stroke-width="1" width="3.75px" x="116.879977366" y="6.65841647055" /><rect fill="#CD845B" height="3.75px" rx="2px" stroke="#CD845B" stroke-width="1" width="3.75px" x="121.501397809" y="7.33982746173" /><rect fill="#CD845B" height="3.75px" rx="2px" stroke="#CD845B" stroke-width="1" width="3.75px" x="121.832495728" y="6.91785948888" /><rect fill="#CD845B" height="3.75px" rx="2px" stroke="#CD845B" stroke-width="1" width="3.75px" x="120.221861321" y="1.46969993247" /><rect fill="#CD845B" height="3.75px" rx="2px" stroke="#CD845B" stroke-width="1" width="3.75px" x="115.335957325" y="3.96622662692" /><rect fill="#CD845B" height="3.75px" rx="2px" stroke="#CD845B" stroke-width="1" width="3.75px" x="113.817867763" y="3.3861065852" /><rect fill="#CD845B" height="3.75px" rx="2px" stroke="#CD845B" stroke-width="1" width="3.75px" x="114.035264651" y="3.84922943188" /><rect fill="#CD845B" height="3.75px" rx="2px" stroke="#CD845B" stroke-width="1" width="3.75px" x="119.515765554" y="4.73952983444" /><rect fill="#CD845B" height="3.75px" rx="2px" stroke="#CD845B" stroke-width="1" width="3.75px" x="116.794354913" y="3.14744706541" /><rect fill="#CD845B" height="3.75px" rx="2px" stroke="#CD845B" stroke-width="1" width="3.75px" x="115.736522676" y="10.6007095241" /><rect fill="#CD845B" height="3.75px" rx="2px" stroke="#CD845B" stroke-width="1" width="3.75px" x="119.642362699" y="7.24359280809" /><rect fill="#CD845B" height="3.75px" rx="2px" stroke="#CD845B" stroke-width="1" width="3.75px" x="114.754171144" y="8.47354967899" /><rect fill="#CD845B" height="3.75px" rx="2px" stroke="#CD845B" stroke-width="1" width="3.75px" x="114.674875561" y="4.88941827802" /><rect fill="#CD845B" height="3.75px" rx="2px" stroke="#CD845B" stroke-width="1" width="3.75px" x="123.142614344" y="7.5599975385" /><rect fill="#CD845B" height="3.75px" rx="2px" stroke="#CD845B" stroke-width="1" width="3.75px" x="118.708734874" y="8.01729607265" /><rect fill="#CD845B" height="3.75px" rx="2px" stroke="#CD845B" stroke-width="1" width="3.75px" x="121.639232182" y="8.95399909335" /><rect fill="#CD845B" height="3.75px" rx="2px" stroke="#CD845B" stroke-width="1" width="3.75px" x="115.347742738" y="1.32902750002" /><rect fill="#CD845B" height="3.75px" rx="2px" stroke="#CD845B" stroke-width="1" width="3.75px" x="116.233393743" y="3.74434397875" /><rect fill="#3B8772" height="6.75px" rx="2px" stroke="#3B8772" stroke-width="1" width="6.75px" x="2.529625616" y="23.8360954289" /><rect fill="#3B8772" height="6.75px" rx="2px" stroke="#3B8772" stroke-width="1" width="6.75px" x="7.35366529193" y="19.2814146358" /><rect fill="#3B8772" height="6.75px" rx="2px" stroke="#3B8772" stroke-width="1" width="6.75px" x="5.75193032339" y="19.8683312827" /><rect fill="#3B8772" height="6.75px" rx="2px" stroke="#3B8772" stroke-width="1" width="6.75px" x="7.63047002562" y="20.3266759313" /><rect fill="#3B8772" height="6.75px" rx="2px" stroke="#3B8772" stroke-width="1" width="6.75px" x="2.92038120711" y="18.7880494308" /><rect fill="#3B8772" height="9.75px" rx="2px" stroke="#3B8772" stroke-width="1" width="9.75px" x="19.3858145702" y="18.1166518362" /><rect fill="#3B8772" height="9.75px" rx="2px" stroke="#3B8772" stroke-width="1" width="9.75px" x="19.4844904585" y="20.8157472553" /><rect fill="#CD845B" height="12.75px" rx="2px" stroke="#CD845B" stroke-width="1" width="12.75px" x="49.4992506314" y="17.2741509489" /><rect fill="#CD845B" height="12.75px" rx="2px" stroke="#CD845B" stroke-width="1" width="12.75px" x="66.2469220081" y="17.6369078671" /><rect fill="#CD845B" height="11.75px" rx="2px" stroke="#CD845B" stroke-width="1" width="11.75px" x="81.2045461774" y="17.1060118447" /><rect fill="#CD845B" height="9.75px" rx="2px" stroke="#CD845B" stroke-width="1" width="9.75px" x="97.466008804" y="19.6666456772" /><rect fill="#CD845B" height="9.75px" rx="2px" stroke="#CD845B" stroke-width="1" width="9.75px" x="100.366337299" y="18.7941798589" /><rect fill="#3B8772" height="8.75px" rx="2px" stroke="#3B8772" stroke-width="1" width="8.75px" x="1.3335204573" y="35.0035012542" /><rect fill="#3B8772" height="8.75px" rx="2px" stroke="#3B8772" stroke-width="1" width="8.75px" x="6.22963724626" y="35.7778503118" /><rect fill="#3B8772" height="8.75px" rx="2px" stroke="#3B8772" stroke-width="1" width="8.75px" x="6.09816148247" y="37.5190934367" /><rect fill="#3B8772" height="11.75px" rx="2px" stroke="#3B8772" stroke-width="1" width="11.75px" x="17.0258322994" y="34.6216240936" /><rect fill="#3B8772" height="13.75px" rx="2px" stroke="#3B8772" stroke-width="1" width="13.75px" x="33.1704275923" y="33.1342425826" /><rect fill="#CD845B" height="14.75px" rx="2px" stroke="#CD845B" stroke-width="1" width="14.75px" x="48.7998811075" y="32.5192786511" /><rect fill="#CD845B" height="13.75px" rx="2px" stroke="#CD845B" stroke-width="1" width="13.75px" x="81.0278880434" y="33.1086913127" /><rect fill="#CDB95B" height="8.75px" rx="2px" stroke="#CDB95B" stroke-width="1" width="8.75px" x="115.382049458" y="38.0075336195" /><rect fill="#CDB95B" height="8.75px" rx="2px" stroke="#CDB95B" stroke-width="1" width="8.75px" x="117.598227937" y="34.3827925164" /><rect fill="#CDB95B" height="8.75px" rx="2px" stroke="#CDB95B" stroke-width="1" width="8.75px" x="115.628077094" y="33.9379223728" /><rect fill="#3B8772" height="9.75px" rx="2px" stroke="#3B8772" stroke-width="1" width="9.75px" x="4.87866831722" y="52.6997039218" /><rect fill="#3B8772" height="9.75px" rx="2px" stroke="#3B8772" stroke-width="1" width="9.75px" x="2.26839036366" y="51.7155353532" /><rect fill="#3B8772" height="14.75px" rx="2px" stroke="#3B8772" stroke-width="1" width="14.75px" x="32.5432723414" y="48.8853705486" /><rect fill="#CD845B" height="15.75px" rx="2px" stroke="#CD845B" stroke-width="1" width="15.75px" x="63.6656060999" y="48.0560866973" /><rect fill="#CDB95B" height="14.75px" rx="2px" stroke="#CDB95B" stroke-width="1" width="14.75px" x="80.416030141" y="48.6022347459" /><rect fill="#CDB95B" height="12.75px" rx="2px" stroke="#CDB95B" stroke-width="1" width="12.75px" x="97.0007148702" y="49.4051950713" /><rect fill="#CDB95B" height="9.75px" rx="2px" stroke="#CDB95B" stroke-width="1" width="9.75px" x="113.082776155" y="52.9486691191" /><rect fill="#CDB95B" height="9.75px" rx="2px" stroke="#CDB95B" stroke-width="1" width="9.75px" x="116.734567981" y="52.5345784998" /><rect fill="#3B8772" height="12.75px" rx="2px" stroke="#3B8772" stroke-width="1" width="12.75px" x="17.3843926568" y="65.0724064581" /><rect fill="#3B8772" height="14.75px" rx="2px" stroke="#3B8772" stroke-width="1" width="14.75px" x="32.3414928006" y="64.289787916" /><rect fill="#3B8772" height="15.75px" rx="2px" stroke="#3B8772" stroke-width="1" width="15.75px" x="48.8501064589" y="64.1495166892" /><rect fill="#57488E" height="15.75px" rx="2px" stroke="#57488E" stroke-width="1" width="15.75px" x="64.8788780927" y="63.6689462108" /><rect fill="#CDB95B" height="12.75px" rx="2px" stroke="#CDB95B" stroke-width="1" width="12.75px" x="97.9572930366" y="65.1604893306" /><rect fill="#CDB95B" height="9.75px" rx="2px" stroke="#CDB95B" stroke-width="1" width="9.75px" x="115.019950107" y="67.3366652724" /><rect fill="#CDB95B" height="9.75px" rx="2px" stroke="#CDB95B" stroke-width="1" width="9.75px" x="114.126490673" y="68.7078404246" /><rect fill="#3B8772" height="8.75px" rx="2px" stroke="#3B8772" stroke-width="1" width="8.75px" x="3.22147418605" y="82.1119405786" /><rect fill="#3B8772" height="8.75px" rx="2px" stroke="#3B8772" stroke-width="1" width="8.75px" x="3.83130446609" y="84.8321381127" /><rect fill="#3B8772" height="8.75px" rx="2px" stroke="#3B8772" stroke-width="1" width="8.75px" x="2.0560430828" y="82.6365105293" /><rect fill="#3B8772" height="11.75px" rx="2px" stroke="#3B8772" stroke-width="1" width="11.75px" x="19.2390860525" y="82.4622256297" /><rect fill="#57488E" height="14.75px" rx="2px" stroke="#57488E" stroke-width="1" width="14.75px" x="48.6714249371" y="80.6118181192" /><rect fill="#57488E" height="13.75px" rx="2px" stroke="#57488E" stroke-width="1" width="13.75px" x="81.030251049" y="81.0561743343" /><rect fill="#CDB95B" height="11.75px" rx="2px" stroke="#CDB95B" stroke-width="1" width="11.75px" x="97.7606925148" y="82.3236946165" /><rect fill="#3B8772" height="9.75px" rx="2px" stroke="#3B8772" stroke-width="1" width="9.75px" x="17.9779876135" y="97.9359238839" /><rect fill="#3B8772" height="9.75px" rx="2px" stroke="#3B8772" stroke-width="1" width="9.75px" x="17.3017206155" y="99.6821875684" /><rect fill="#57488E" height="11.75px" rx="2px" stroke="#57488E" stroke-width="1" width="11.75px" x="33.5151190136" y="99.0371950293" /><rect fill="#57488E" height="12.75px" rx="2px" stroke="#57488E" stroke-width="1" width="12.75px" x="50.0745442503" y="97.0885716874" /><rect fill="#57488E" height="12.75px" rx="2px" stroke="#57488E" stroke-width="1" width="12.75px" x="65.297505793" y="97.8362222229" /><rect fill="#57488E" height="9.75px" rx="2px" stroke="#57488E" stroke-width="1" width="9.75px" x="97.9105064313" y="97.5623253571" /><rect fill="#57488E" height="9.75px" rx="2px" stroke="#57488E" stroke-width="1" width="9.75px" x="100.975935522" y="99.4269331466" /><rect fill="#CDB95B" height="6.75px" rx="2px" stroke="#CDB95B" stroke-width="1" width="6.75px" x="116.426864941" y="102.688490826" /><rect fill="#CDB95B" height="6.75px" rx="2px" stroke="#CDB95B" stroke-width="1" width="6.75px" x="118.854353234" y="98.3804718791" /><rect fill="#CDB95B" height="6.75px" rx="2px" stroke="#CDB95B" stroke-width="1" width="6.75px" x="113.702748403" y="100.125121072" /><rect fill="#CDB95B" height="6.75px" rx="2px" stroke="#CDB95B" stroke-width="1" width="6.75px" x="116.070945017" y="100.385928843" /><rect fill="#CDB95B" height="6.75px" rx="2px" stroke="#CDB95B" stroke-width="1" width="6.75px" x="118.285799909" y="101.881892968" /><rect fill="#3B8772" height="3.75px" rx="2px" stroke="#3B8772" stroke-width="1" width="3.75px" x="11.0876934165" y="114.008783179" /><rect fill="#3B8772" height="3.75px" rx="2px" stroke="#3B8772" stroke-width="1" width="3.75px" x="5.12686814155" y="116.477851705" /><rect fill="#3B8772" height="3.75px" rx="2px" stroke="#3B8772" stroke-width="1" width="3.75px" x="9.83214349762" y="115.548727423" /><rect fill="#3B8772" height="3.75px" rx="2px" stroke="#3B8772" stroke-width="1" width="3.75px" x="2.94964131152" y="117.598288865" /><rect fill="#3B8772" height="3.75px" rx="2px" stroke="#3B8772" stroke-width="1" width="3.75px" x="5.3242868083" y="115.855087733" /><rect fill="#3B8772" height="3.75px" rx="2px" stroke="#3B8772" stroke-width="1" width="3.75px" x="3.56051609079" y="122.463472393" /><rect fill="#3B8772" height="3.75px" rx="2px" stroke="#3B8772" stroke-width="1" width="3.75px" x="5.5420901368" y="121.828828324" /><rect fill="#3B8772" height="3.75px" rx="2px" stroke="#3B8772" stroke-width="1" width="3.75px" x="6.64083445261" y="113.518530378" /><rect fill="#3B8772" height="3.75px" rx="2px" stroke="#3B8772" stroke-width="1" width="3.75px" x="11.2426453012" y="121.569282747" /><rect fill="#3B8772" height="3.75px" rx="2px" stroke="#3B8772" stroke-width="1" width="3.75px" x="10.9322116372" y="122.495261576" /><rect fill="#3B8772" height="3.75px" rx="2px" stroke="#3B8772" stroke-width="1" width="3.75px" x="9.69913127775" y="114.704688884" /><rect fill="#3B8772" height="3.75px" rx="2px" stroke="#3B8772" stroke-width="1" width="3.75px" x="5.97782153587" y="115.190909817" /><rect fill="#3B8772" height="3.75px" rx="2px" stroke="#3B8772" stroke-width="1" width="3.75px" x="5.11066299863" y="113.60101285" /><rect fill="#3B8772" height="3.75px" rx="2px" stroke="#3B8772" stroke-width="1" width="3.75px" x="4.88447446951" y="123.099415649" /><rect fill="#3B8772" height="3.75px" rx="2px" stroke="#3B8772" stroke-width="1" width="3.75px" x="3.71833134626" y="121.03672367" /><rect fill="#3B8772" height="3.75px" rx="2px" stroke="#3B8772" stroke-width="1" width="3.75px" x="5.66383576523" y="117.335826731" /><rect fill="#3B8772" height="3.75px" rx="2px" stroke="#3B8772" stroke-width="1" width="3.75px" x="10.8125058188" y="123.203082567" /><rect fill="#3B8772" height="3.75px" rx="2px" stroke="#3B8772" stroke-width="1" width="3.75px" x="6.69662531491" y="120.363684822" /><rect fill="#57488E" height="8.75px" rx="2px" stroke="#57488E" stroke-width="1" width="8.75px" x="33.8126833327" y="114.557716084" /><rect fill="#57488E" height="8.75px" rx="2px" stroke="#57488E" stroke-width="1" width="8.75px" x="38.0857241661" y="116.040696527" /><rect fill="#57488E" height="8.75px" rx="2px" stroke="#57488E" stroke-width="1" width="8.75px" x="35.8465248072" y="116.926871692" /><rect fill="#57488E" height="9.75px" rx="2px" stroke="#57488E" stroke-width="1" width="9.75px" x="65.2429524099" y="115.482754776" /><rect fill="#57488E" height="9.75px" rx="2px" stroke="#57488E" stroke-width="1" width="9.75px" x="67.1371141274" y="116.624059541" /><rect fill="#57488E" height="8.75px" rx="2px" stroke="#57488E" stroke-width="1" width="8.75px" x="81.8265218217" y="118.044089242" /><rect fill="#57488E" height="8.75px" rx="2px" stroke="#57488E" stroke-width="1" width="8.75px" x="81.4205851925" y="113.975581045" /><rect fill="#57488E" height="8.75px" rx="2px" stroke="#57488E" stroke-width="1" width="8.75px" x="84.1239343089" y="116.544865906" /><rect fill="#57488E" height="3.75px" rx="2px" stroke="#57488E" stroke-width="1" width="3.75px" x="115.410839924" y="114.228837793" /><rect fill="#57488E" height="3.75px" rx="2px" stroke="#57488E" stroke-width="1" width="3.75px" x="122.12544497" y="115.523707315" /><rect fill="#57488E" height="3.75px" rx="2px" stroke="#57488E" stroke-width="1" width="3.75px" x="119.093821324" y="119.348660481" /><rect fill="#57488E" height="3.75px" rx="2px" stroke="#57488E" stroke-width="1" width="3.75px" x="117.297055382" y="118.982640965" /><rect fill="#57488E" height="3.75px" rx="2px" stroke="#57488E" stroke-width="1" width="3.75px" x="118.358522834" y="122.580739142" /><rect fill="#57488E" height="3.75px" rx="2px" stroke="#57488E" stroke-width="1" width="3.75px" x="115.093656794" y="120.340965958" /><rect fill="#57488E" height="3.75px" rx="2px" stroke="#57488E" stroke-width="1" width="3.75px" x="115.446531014" y="117.05680493" /><rect fill="#57488E" height="3.75px" rx="2px" stroke="#57488E" stroke-width="1" width="3.75px" x="119.884824785" y="116.074970068" /><rect fill="#57488E" height="3.75px" rx="2px" stroke="#57488E" stroke-width="1" width="3.75px" x="116.240816262" y="120.706611047" /><rect fill="#57488E" height="3.75px" rx="2px" stroke="#57488E" stroke-width="1" width="3.75px" x="113.743566924" y="117.697426607" /><rect fill="#57488E" height="3.75px" rx="2px" stroke="#57488E" stroke-width="1" width="3.75px" x="123.234158019" y="123.209988591" /><rect fill="#57488E" height="3.75px" rx="2px" stroke="#57488E" stroke-width="1" width="3.75px" x="113.750922391" y="115.184831701" /><rect fill="#57488E" height="3.75px" rx="2px" stroke="#57488E" stroke-width="1" width="3.75px" x="115.718304251" y="122.565908624" /><rect fill="#57488E" height="3.75px" rx="2px" stroke="#57488E" stroke-width="1" width="3.75px" x="122.02885778" y="122.012519985" /><rect fill="#57488E" height="3.75px" rx="2px" stroke="#57488E" stroke-width="1" width="3.75px" x="116.78765266" y="114.616905032" /><rect fill="#57488E" height="3.75px" rx="2px" stroke="#57488E" stroke-width="1" width="3.75px" x="121.545885785" y="120.211284232" /><rect fill="#57488E" height="3.75px" rx="2px" stroke="#57488E" stroke-width="1" width="3.75px" x="119.269697099" y="123.119138902" /><rect fill="#57488E" height="3.75px" rx="2px" stroke="#57488E" stroke-width="1" width="3.75px" x="119.703257257" y="113.080186848" /></svg>